# xmcd
#
# Track frame offsets:
# 150
# 1086
# 19820
# 37394
# 55362
# 74295
# 91270
# 106149
# 124720
# 144851
# 163620
# 187614
# 213116
#
# Disc length: 2964 seconds
#
#
# Revision: 0
# Processed by: cddbd v1.5.1PL0 Copyright (c) Steve Scherf et al.
# Submitted via: FreeRIP 2.941 
#
DISCID=a10b920d
DTITLE=The Road Hammers - The Road Hammers
DYEAR=2005
DGENRE=Country
TTITLE0=Ignition
TTITLE1=I'm A Road Hammer
TTITLE2=Overdrive
TTITLE3=Keep On Truckin'
TTITLE4=Girl On The Billboard
TTITLE5=4 Wheel Drive
TTITLE6=East Bound and Down
TTITLE7=Call It A Day
TTITLE8=Nashville Bound
TTITLE9=Willin'
TTITLE10=Hammer Goin' Down
TTITLE11=I'm A Road Hammer (reprise)
TTITLE12=Flat Tires and Stripped Gears (outakes)
EXTD=
EXTT0=
EXTT1=
EXTT2=
EXTT3=
EXTT4=
EXTT5=
EXTT6=
EXTT7=
EXTT8=
EXTT9=
EXTT10=
EXTT11=
EXTT12=
PLAYORDER=
